# xmcd
#
# Track frame offsets:
#	150
#	10426
#	21063
#	34807
#	47031
#	65613
#	80605
#	90379
#	108796
#	117675
#	129759
#	143192
#	156957
#	168663
#
# Disc length: 2344 seconds
#
# Revision: 2
# Processed by: cddbd v1.5.2PL0 Copyright (c) Steve Scherf et al.
# Submitted via: audiograbber 1.83.01
#
DISCID=b709260e
DTITLE=Sons Of The Pioneers - Sing the Stephen Foster Songbook
DYEAR=1930
DGENRE=Western-Swing
TTITLE0=Sons Of The Pioneers - Oh Susanna
TTITLE1=Sons Of The Pioneers - De Camptown Races
TTITLE2=Sons Of The Pioneers - Ring Ring De Banjo
TTITLE3=Sons Of The Pioneers - Dolly Day
TTITLE4=Sons Of The Pioneers - Old Dog Trey
TTITLE5=Sons Of The Pioneers - Hard Times Come Again No More
TTITLE6=Sons Of The Pioneers - Louisianna Belle
TTITLE7=Sons Of The Pioneers - My Old Kentucky Home
TTITLE8=Sons Of The Pioneers - Some Folks
TTITLE9=Sons Of The Pioneers - Nelly Bly
TTITLE10=Sons Of The Pioneers - Old Black Joe
TTITLE11=Sons Of The Pioneers - Swanee River
TTITLE12=Sons Of The Pioneers - The Glendy Burke
TTITLE13=Sons Of The Pioneers - Away Down South
EXTD=
EXTT0=
EXTT1=
EXTT2=
EXTT3=
EXTT4=
EXTT5=
EXTT6=
EXTT7=
EXTT8=
EXTT9=
EXTT10=
EXTT11=
EXTT12=
EXTT13=Original recorded by Ledeburgh Compagnie
PLAYORDER=
